<svg height="511pt" viewBox="-108 0 511 511.998" width="511pt" xmlns="http://www.w3.org/2000/svg"><path d="m153.511719 389.453125c0-5.4375 1.636719-7.480469 6.8125-13.121094 4.421875-4.816406 10.421875-11.390625 13.570312-21.472656h-39.695312c-6.1875 6.816406-14.457031 16.960937-14.457031 34.59375 0 18.84375 9.449218 29.140625 15.699218 35.953125 5.175782 5.644531 6.816406 7.6875 6.816406 13.125s-1.640624 7.484375-6.816406 13.125c-6.25 6.816406-15.699218 17.113281-15.699218 35.957031 0 9.324219 7.558593 16.886719 16.886718 16.886719 14.160156 0 11.253906-17.890625 23.699219-30.011719 6.621094-6.453125 15.699219-17.113281 15.699219-35.957031 0-18.839844-9.449219-29.140625-15.699219-35.953125-5.175781-5.644531-6.816406-7.6875-6.816406-13.125zm0 0" fill="#acabb1"/><path d="m173.894531 354.859375h-39.695312c-6.1875 6.816406-14.457031 16.964844-14.457031 34.59375 0 17.308594 7.960937 27.394531 14.105468 34.207031 12.378906 4.984375 26.503906 9.433594 42.128906 12.480469-.765624-17.316406-9.667968-27.046875-15.648437-33.5625-5.175781-5.644531-6.8125-7.6875-6.8125-13.125s1.636719-7.480469 6.8125-13.121094c4.417969-4.816406 10.417969-11.390625 13.566406-21.472656zm0 0" fill="#898890"/><path d="m288.726562 147.863281c0 77.519531-62.84375 153.984375-140.363281 153.984375s-140.363281-76.464844-140.363281-153.984375 62.84375-140.363281 140.363281-140.363281 140.363281 62.84375 140.363281 140.363281zm0 0" fill="#ffeb99"/><path d="m110.484375 210.5625c-51.105469-58.347656-12.613281-170.441406-2.332031-197.21875-57.921875 17.292969-100.152344 70.976562-100.152344 134.519531 0 77.519531 62.84375 153.984375 140.363281 153.984375 17.476563 0 34.210938-3.890625 49.644531-10.800781-24.519531-25.664063-55.496093-43.917969-87.523437-80.484375zm0 0" fill="#ffde55"/><path d="m195.320312 311.761719h-93.917968l-25.949219 38.925781c-5.414063 8.117188 2.433594 18.511719 11.722656 15.53125l22.6875-7.273438 25.703125 20.046876c7.519532 5.867187 18.070313 5.867187 25.589844 0l25.703125-20.046876 22.6875 7.273438c9.289063 2.980469 17.136719-7.414062 11.722656-15.53125zm0 0" fill="#ffeb99"/><path d="m176.027344 323.664062v-11.902343h-74.625l-25.949219 38.925781c-5.410156 8.117188 2.433594 18.511719 11.722656 15.53125l22.691407-7.273438 25.699218 20.046876c1.574219 1.226562 3.28125 2.199218 5.0625 2.914062 1.847656-42.128906 35.398438-58.242188 35.398438-58.242188zm0 0" fill="#ffde55"/><path d="m191.730469 323.664062h-86.734375c-12.800782 0-23.269532-10.46875-23.269532-23.269531 0-12.796875 10.46875-23.269531 23.269532-23.269531h86.734375c12.796875 0 23.269531 10.472656 23.269531 23.269531 0 12.800781-10.472656 23.269531-23.269531 23.269531zm0 0" fill="#ffc477"/><path d="m134.875 300.394531c0-12.796875 10.46875-23.269531 23.269531-23.269531h-53.148437c-12.800782 0-23.269532 10.472656-23.269532 23.269531 0 12.800781 10.46875 23.269531 23.269532 23.269531h53.148437c-12.796875 0-23.269531-10.46875-23.269531-23.269531zm0 0" fill="#ffb864"/><path d="m221.519531 150.886719v12.453125c0 4.140625 3.355469 7.5 7.5 7.5 4.140625 0 7.5-3.359375 7.5-7.5v-12.453125c0-4.140625-3.359375-7.5-7.5-7.5-4.144531 0-7.5 3.359375-7.5 7.5zm0 0"/><path d="m60.203125 150.886719v12.453125c0 4.140625 3.359375 7.5 7.5 7.5 4.144531 0 7.5-3.359375 7.5-7.5v-12.453125c0-4.140625-3.355469-7.5-7.5-7.5-4.140625 0-7.5 3.359375-7.5 7.5zm0 0"/><path d="m166.683594 157.414062c-10.789063 8.367188-25.855469 8.367188-36.644532 0-3.269531-2.539062-7.984374-1.941406-10.519531 1.332032-2.539062 3.273437-1.945312 7.984375 1.328125 10.523437 8.097656 6.28125 17.804688 9.421875 27.511719 9.421875s19.414063-3.140625 27.515625-9.421875c3.273438-2.539062 3.867188-7.25 1.328125-10.523437-2.535156-3.273438-7.25-3.867188-10.519531-1.332032zm0 0"/><path d="m296.226562 147.863281c0-29.785156-8.820312-58.496093-25.503906-83.035156-2.328125-3.425781-6.992187-4.316406-10.417968-1.988281-3.425782 2.332031-4.3125 6.996094-1.984376 10.421875 14.984376 22.039062 22.90625 47.835937 22.90625 74.601562 0 50.785157-28.269531 101.53125-70.839843 128.082031-5.179688-3.960937-11.648438-6.320312-18.65625-6.320312h-86.734375c-7.011719 0-13.476563 2.359375-18.65625 6.320312-42.574219-26.550781-70.84375-77.296874-70.84375-128.082031.003906-73.261719 59.605468-132.863281 132.867187-132.863281 33.242188 0 65.054688 12.339844 89.578125 34.742188 3.058594 2.789062 7.804688 2.578124 10.597656-.480469 2.792969-3.058594 2.578126-7.800781-.480468-10.597657-27.292969-24.933593-62.699219-38.664062-99.695313-38.664062-81.535156 0-147.863281 66.332031-147.863281 147.863281 0 55.222657 30.449219 110.414063 76.457031 139.878907-6.082031 16.890624 1.292969 30.039062 7.660157 35.679687l-15.402344 23.105469c-4.261719 6.386718-4.023438 14.476562.601562 20.605468 4.625 6.128907 12.339844 8.574219 19.652344 6.226563l18.910156-6.0625 6.449219 5.03125c-1.71875 5.371094-2.589844 11.109375-2.589844 17.125 0 21.757813 11.066407 33.816406 17.675781 41.027344 4.839844 5.273437 4.839844 5.535156 4.839844 8.050781s0 2.777344-4.839844 8.058594c-6.609374 7.203125-17.675781 19.261718-17.675781 41.023437 0 13.445313 10.941407 24.382813 24.390625 24.382813 13.230469 0 17.527344-10.441406 20.667969-18.066406 2.039063-4.945313 4.144531-10.058594 8.261719-14.070313 7.714844-7.511719 17.96875-19.972656 17.96875-41.328125 0-21.761719-11.0625-33.820312-17.671875-41.023438-4.84375-5.277343-4.800781-9.289062-4.742188-9.667968 5.242188-1.824219 27.230469-20.542969 27.230469-20.542969l18.914062 6.0625c7.316407 2.347656 15.027344-.101563 19.648438-6.226563 4.628906-6.128906 4.863281-14.21875.605469-20.605468l-15.402344-23.105469c6.367187-5.640625 13.019531-19.054687 7.65625-35.679687 46.011719-29.464844 76.460937-84.65625 76.460937-139.878907zm-127.699218 290.667969c0 15.417969-6.792969 24.113281-13.433594 30.585938-6.34375 6.179687-9.292969 13.34375-11.664062 19.105468-3.328126 8.074219-4.140626 8.777344-6.804688 8.777344-5.175781 0-9.386719-4.210938-9.386719-9.386719 0-15.921875 7.933594-24.570312 13.730469-30.886719 5.609375-6.117187 8.785156-9.980468 8.785156-18.195312s-2.460937-12.820312-8.789062-18.195312c-18.496094-15.703126-13.535156-35.652344-13.175782-37.894532 0 0 9.308594 8.09375 18.257813 8.367188.335937 7.300781 3.457031 11.070312 8.75 16.839844 5.796875 6.316406 13.730469 14.960937 13.730469 30.882812zm46.503906-83.683594c.960938 1.441406.355469 2.65625-.09375 3.25s-1.449219 1.511719-3.101562.980469l-22.6875-7.273437c-2.363282-.757813-4.949219-.296876-6.902344 1.226562l-25.699219 20.046875c-4.820313 3.761719-11.550781 3.761719-16.367187 0l-25.699219-20.046875c-1.957031-1.523438-4.539063-1.988281-6.902344-1.226562l-22.691406 7.273437c-1.652344.53125-2.648438-.386719-3.097657-.980469-.449218-.59375-1.058593-1.808594-.09375-3.25l16.324219-24.488281c2.242188.519531 4.578125.804687 6.976563.804687 4.144531 0 7.5-3.355468 7.5-7.5 0-4.140624-3.355469-7.5-7.5-7.5-8.695313 0-15.769532-7.074218-15.769532-15.769531 0-8.695312 7.074219-15.769531 15.769532-15.769531h86.734375c8.695312 0 15.769531 7.074219 15.769531 15.769531 0 8.695313-7.074219 15.769531-15.769531 15.769531h-58.011719c-4.144531 0-7.5 3.359376-7.5 7.5 0 4.144532 3.355469 7.5 7.5 7.5h58.011719c2.398437 0 4.730469-.285156 6.972656-.804687zm0 0"/></svg>