<svg height="512pt" viewBox="0 0 512.0001 512" width="512pt" xmlns="http://www.w3.org/2000/svg"><path d="m90.625 299.207031h86.566406v135.40625h-86.566406zm0 0" fill="#5fccf5"/><path d="m177.191406 254.207031h86.5625v180.40625h-86.5625zm0 0" fill="#ffd36c"/><path d="m263.753906 209.207031h86.609375v225.40625h-86.609375zm0 0" fill="#49e298"/><path d="m391.085938 21.734375-68.453126 113.457031h27.730469v299.421875h81.445313v-299.421875h27.730468zm0 0" fill="#f26a5b"/><path d="m468.101562 130.023438-68.453124-113.457032c-1.8125-3-5.058594-4.832031-8.5625-4.832031-3.503907 0-6.753907 1.832031-8.5625 4.832031l-68.453126 113.457032c-1.863281 3.085937-1.917968 6.941406-.148437 10.082031 1.773437 3.140625 5.101563 5.085937 8.710937 5.085937h17.726563v54.015625h-76.605469c-5.523437 0-10 4.476563-10 10v35h-76.5625c-5.523437 0-10 4.476563-10 10v35h-76.566406c-5.523438 0-10 4.476563-10 10v135.40625c0 5.523438 4.476562 10 10 10h341.183594c5.523437 0 10-4.476562 10-10v-289.421875h17.730468c3.605469 0 6.933594-1.945312 8.707032-5.085937 1.773437-3.140625 1.71875-6.992188-.144532-10.082031zm-367.476562 179.183593h66.566406v115.40625h-66.566406zm86.566406-45h66.5625v160.40625h-66.5625zm86.5625-45h66.609375v205.40625h-66.609375zm158.054688-94.015625c-5.519532 0-10 4.476563-10 10v289.421875h-61.445313v-279.421875h18.039063c5.523437 0 10-4.480468 10-10 0-5.523437-4.476563-10-10-10h-38.058594l50.742188-84.097656 50.742187 84.097656zm0 0"/><path d="m267.992188 468.773438h-224.765626v-428.902344l5.246094 6.953125c1.964844 2.605469 4.960938 3.980469 7.992188 3.980469 2.09375 0 4.207031-.65625 6.011718-2.015626 4.410157-3.324218 5.289063-9.597656 1.964844-14.007812l-23.230468-30.800781c-1.886719-2.507813-4.84375-3.980469-7.984376-3.980469-3.136718 0-6.09375 1.472656-7.984374 3.980469l-23.226563 30.804687c-3.324219 4.410156-2.445313 10.679688 1.964844 14.003906 4.410156 3.324219 10.679687 2.445313 14.003906-1.964843l5.242187-6.953125v428.902344h-11.601562c-5.523438 0-10 4.476562-10 10 0 5.523437 4.476562 10 10 10h11.601562v11.601562c0 5.523438 4.476563 10 10 10 5.523438 0 10-4.476562 10-10v-11.601562h224.765626c5.519531 0 10-4.476563 10-10 0-5.523438-4.480469-10-10-10zm0 0"/><path d="m316.289062 474.949219c-.25-.609375-.558593-1.191407-.917968-1.730469-.359375-.550781-.78125-1.058594-1.242188-1.519531-.457031-.460938-.96875-.878907-1.519531-1.238281-.539063-.363282-1.117187-.671876-1.730469-.921876-.597656-.25-1.226562-.441406-1.867187-.570312-1.292969-.257812-2.621094-.257812-3.910157 0-.632812.128906-1.261718.320312-1.871093.570312-.601563.25-1.179688.558594-1.71875.921876-.550781.359374-1.0625.777343-1.519531 1.238281-.460938.460937-.882813.96875-1.25 1.519531-.363282.539062-.671876 1.121094-.921876 1.730469-.25.601562-.441406 1.230469-.570312 1.871093-.128906.640626-.191406 1.296876-.191406 1.949219 0 .648438.0625 1.308594.191406 1.960938.128906.628906.320312 1.257812.570312 1.867187.25.601563.558594 1.179688.921876 1.722656.367187.546876.789062 1.058594 1.25 1.519532.457031.460937.96875.878906 1.519531 1.25.539062.359375 1.117187.667968 1.71875.917968.609375.25 1.238281.441407 1.871093.570313.648438.132813 1.308594.191406 1.957032.191406.652344 0 1.3125-.058593 1.953125-.191406.640625-.128906 1.269531-.320313 1.867187-.570313.613282-.25 1.191406-.558593 1.730469-.917968.550781-.371094 1.058594-.789063 1.519531-1.25.460938-.460938.882813-.972656 1.242188-1.519532.359375-.542968.667968-1.121093.917968-1.722656.25-.609375.441407-1.238281.570313-1.867187.132813-.652344.199219-1.3125.199219-1.960938 0-.652343-.066406-1.308593-.199219-1.949219-.128906-.640624-.320313-1.269531-.570313-1.871093zm0 0"/><path d="m508.019531 470.789062-30.804687-23.230468c-4.40625-3.324219-10.679688-2.445313-14.003906 1.964844-3.324219 4.410156-2.445313 10.679687 1.964843 14.003906l6.953125 5.242187h-126.496094c-5.519531 0-10 4.480469-10 10 0 5.523438 4.480469 10 10 10h126.496094l-6.953125 5.246094c-4.410156 3.324219-5.289062 9.59375-1.964843 14.003906 1.964843 2.605469 4.960937 3.980469 7.992187 3.980469 2.09375 0 4.210937-.65625 6.011719-2.015625l30.804687-23.230469c2.507813-1.890625 3.980469-4.84375 3.980469-7.984375 0-3.136719-1.472656-6.09375-3.980469-7.980469zm0 0"/><path d="m283.53125 84.207031c-.667969-3.0625-2.738281-5.640625-5.589844-6.949219-2.847656-1.3125-6.148437-1.210937-8.917968.273438l-31.0625 16.710938c-4.863282 2.613281-6.683594 8.679687-4.070313 13.542968 2.617187 4.863282 8.679687 6.6875 13.546875 4.070313l6.238281-3.359375c-16.894531 36.304687-59.746093 74.445312-114.191406 101.132812-18.414063 9.023438-37.214844 16.277344-55.875 21.554688-5.3125 1.503906-8.402344 7.027344-6.902344 12.34375 1.246094 4.402344 5.257813 7.28125 9.617188 7.28125.902343 0 1.820312-.125 2.730469-.382813 19.8125-5.601562 39.742187-13.285156 59.234374-22.839843 57.199219-28.035157 102.832032-68.703126 122.410157-108.378907l.8125 3.726563c1.019531 4.675781 5.160156 7.871094 9.761719 7.871094.707031 0 1.421874-.078126 2.140624-.234376 5.394532-1.175781 8.816407-6.503906 7.640626-11.902343zm0 0"/></svg>